<svg width="270" height="217" viewBox="0 0 270 217" fill="none" xmlns="http://www.w3.org/2000/svg">
<g clip-path="url(#clip0_297_8605)">
<rect x="44.3795" y="32.3428" width="4" height="4" fill="white" fill-opacity="0.57"/>
<rect x="44.3796" y="62.1945" width="4" height="4" fill="white" fill-opacity="0.57"/>
<rect x="44.3796" y="92.0457" width="4" height="4" fill="white" fill-opacity="0.57"/>
<rect x="14.5221" y="47.2664" width="4" height="4" fill="white" fill-opacity="0.57"/>
<rect x="14.5221" y="77.1181" width="4" height="4" fill="white" fill-opacity="0.57"/>
<rect x="74.2252" y="47.2664" width="4" height="4" fill="white" fill-opacity="0.57"/>
<rect x="14.528" y="14.9219" width="4" height="4" fill="white" fill-opacity="0.57"/>
<rect x="44.3837" y="-0.00158691" width="4" height="4" fill="white" fill-opacity="0.57"/>
<rect x="14.5223" y="106.969" width="4" height="4" fill="white" fill-opacity="0.57"/>
<rect x="14.5223" y="136.82" width="4" height="4" fill="white" fill-opacity="0.57"/>
<rect x="14.528" y="166.668" width="4" height="4" fill="white" fill-opacity="0.57"/>
<rect x="14.5279" y="196.52" width="4" height="4" fill="white" fill-opacity="0.57"/>
<rect x="44.3837" y="181.596" width="4" height="4" fill="white" fill-opacity="0.57"/>
<rect x="44.3837" y="211.447" width="4" height="4" fill="white" fill-opacity="0.57"/>
<rect x="74.2291" y="166.67" width="4" height="4" fill="white" fill-opacity="0.57"/>
<rect x="44.3815" y="121.895" width="4" height="4" fill="white" fill-opacity="0.57"/>
<rect x="44.3815" y="151.746" width="4" height="4" fill="white" fill-opacity="0.57"/>
<rect x="104.079" y="181.599" width="4" height="4" fill="white" fill-opacity="0.57"/>
<rect x="104.079" y="211.45" width="4" height="4" fill="white" fill-opacity="0.57"/>
<rect x="74.2233" y="196.522" width="4" height="4" fill="white" fill-opacity="0.57"/>
<rect x="133.926" y="196.522" width="4" height="4" fill="white" fill-opacity="0.57"/>
<rect x="104.079" y="6.10352e-05" width="4" height="4" fill="white" fill-opacity="0.57"/>
<rect x="104.079" y="29.8516" width="4" height="4" fill="white" fill-opacity="0.57"/>
<rect x="74.2233" y="14.9238" width="4" height="4" fill="white" fill-opacity="0.57"/>
<rect x="133.927" y="14.9238" width="4" height="4" fill="white" fill-opacity="0.57"/>
<rect x="193.635" y="17.4133" width="4" height="4" fill="white" fill-opacity="0.57"/>
<rect x="193.635" y="47.2647" width="4" height="4" fill="white" fill-opacity="0.57"/>
<rect x="163.788" y="2.48944" width="4" height="4" fill="white" fill-opacity="0.57"/>
<rect x="163.787" y="32.3412" width="4" height="4" fill="white" fill-opacity="0.57"/>
<rect x="223.491" y="2.4895" width="4" height="4" fill="white" fill-opacity="0.57"/>
<rect x="223.491" y="32.3412" width="4" height="4" fill="white" fill-opacity="0.57"/>
<rect x="163.784" y="181.599" width="4" height="4" fill="white" fill-opacity="0.57"/>
<rect x="193.631" y="166.672" width="4" height="4" fill="white" fill-opacity="0.57"/>
<rect x="193.635" y="196.521" width="4" height="4" fill="white" fill-opacity="0.57"/>
<rect x="163.788" y="211.448" width="4" height="4" fill="white" fill-opacity="0.57"/>
<rect x="223.491" y="211.449" width="4" height="4" fill="white" fill-opacity="0.57"/>
<rect x="250.846" y="136.817" width="4" height="4" fill="white" fill-opacity="0.57"/>
<rect x="250.846" y="166.669" width="4" height="4" fill="white" fill-opacity="0.57"/>
<rect x="250.846" y="196.521" width="4" height="4" fill="white" fill-opacity="0.57"/>
<rect x="220.999" y="151.745" width="4" height="4" fill="white" fill-opacity="0.57"/>
<rect x="220.999" y="181.597" width="4" height="4" fill="white" fill-opacity="0.57"/>
<rect x="220.995" y="62.1934" width="4" height="4" fill="white" fill-opacity="0.57"/>
<rect x="220.995" y="92.045" width="4" height="4" fill="white" fill-opacity="0.57"/>
<rect x="220.995" y="121.896" width="4" height="4" fill="white" fill-opacity="0.57"/>
<rect x="250.842" y="77.1172" width="4" height="4" fill="white" fill-opacity="0.57"/>
<rect x="250.842" y="106.969" width="4" height="4" fill="white" fill-opacity="0.57"/>
<rect x="250.839" y="17.4149" width="4" height="4" fill="white" fill-opacity="0.57"/>
<rect x="250.839" y="47.2663" width="4" height="4" fill="white" fill-opacity="0.57"/>
<path d="M134.944 108.353L134.944 154.969" stroke="white" stroke-width="4" stroke-linecap="round"/>
<path d="M88.3326 85L88.3326 131.616" stroke="white" stroke-width="4" stroke-linecap="round"/>
<path d="M88.3326 131.664L134.949 154.972" stroke="white" stroke-width="4" stroke-linecap="round"/>
<path d="M134.944 154.929L181.56 131.621" stroke="white" stroke-width="4" stroke-linecap="round"/>
<path d="M181.565 85L181.565 131.616" stroke="white" stroke-width="4" stroke-linecap="round"/>
<path d="M134.944 61.7354L181.56 85.0434" stroke="white" stroke-width="4" stroke-linecap="round"/>
<path d="M88.3326 85.5791L134.521 107.664" stroke="white" stroke-width="4" stroke-linecap="round"/>
<path d="M134.512 107.705L181.018 84.4632" stroke="white" stroke-width="4" stroke-linecap="round"/>
<path d="M88.3326 85.0195L134.949 61.7115" stroke="white" stroke-width="4" stroke-linecap="round"/>
</g>
<defs>
<clipPath id="clip0_297_8605">
<rect width="269.333" height="216.424" fill="white" transform="translate(0.666626)"/>
</clipPath>
</defs>
</svg>
