<svg width="270" height="217" viewBox="0 0 270 217" fill="none" xmlns="http://www.w3.org/2000/svg">
<g clip-path="url(#clip0_297_8282)">
<rect x="43.713" y="32.3428" width="4" height="4" fill="#516CFD"/>
<rect x="43.713" y="62.1943" width="4" height="4" fill="#516CFD"/>
<rect x="43.7129" y="92.0457" width="4" height="4" fill="#516CFD"/>
<rect x="13.8574" y="47.2667" width="4" height="4" fill="#516CFD"/>
<rect x="13.8574" y="77.1182" width="4" height="4" fill="#516CFD"/>
<rect x="73.5605" y="47.2667" width="4" height="4" fill="#516CFD"/>
<rect x="13.8613" y="14.9217" width="4" height="4" fill="#516CFD"/>
<rect x="43.7168" y="-0.00177002" width="4" height="4" fill="#516CFD"/>
<rect x="13.8574" y="106.969" width="4" height="4" fill="#516CFD"/>
<rect x="13.8574" y="136.82" width="4" height="4" fill="#516CFD"/>
<rect x="13.8613" y="166.668" width="4" height="4" fill="#516CFD"/>
<rect x="13.8613" y="196.52" width="4" height="4" fill="#516CFD"/>
<rect x="43.7168" y="181.596" width="4" height="4" fill="#516CFD"/>
<rect x="43.7168" y="211.448" width="4" height="4" fill="#516CFD"/>
<rect x="73.5625" y="166.67" width="4" height="4" fill="#516CFD"/>
<rect x="43.715" y="121.895" width="4" height="4" fill="#516CFD"/>
<rect x="43.7148" y="151.746" width="4" height="4" fill="#516CFD"/>
<rect x="103.412" y="181.599" width="4" height="4" fill="#516CFD"/>
<rect x="103.412" y="211.45" width="4" height="4" fill="#516CFD"/>
<rect x="73.5566" y="196.522" width="4" height="4" fill="#516CFD"/>
<rect x="133.26" y="196.522" width="4" height="4" fill="#516CFD"/>
<rect x="103.416" y="92.043" width="4" height="4" fill="#516CFD"/>
<rect x="103.412" width="4" height="4" fill="#516CFD"/>
<rect x="103.412" y="29.8516" width="4" height="4" fill="#516CFD"/>
<rect x="73.5566" y="14.9236" width="4" height="4" fill="#516CFD"/>
<rect x="133.26" y="14.9236" width="4" height="4" fill="#516CFD"/>
<rect x="192.967" y="17.4131" width="4" height="4" fill="#516CFD"/>
<rect x="192.967" y="47.2645" width="4" height="4" fill="#516CFD"/>
<rect x="163.121" y="2.48932" width="4" height="4" fill="#516CFD"/>
<rect x="163.121" y="32.3409" width="4" height="4" fill="#516CFD"/>
<rect x="222.824" y="2.48932" width="4" height="4" fill="#516CFD"/>
<rect x="222.824" y="32.3409" width="4" height="4" fill="#516CFD"/>
<rect x="163.117" y="181.6" width="4" height="4" fill="#516CFD"/>
<rect x="192.963" y="166.672" width="4" height="4" fill="#516CFD"/>
<rect x="192.967" y="196.521" width="4" height="4" fill="#516CFD"/>
<rect x="163.121" y="211.448" width="4" height="4" fill="#516CFD"/>
<rect x="222.824" y="211.448" width="4" height="4" fill="#516CFD"/>
<rect x="250.18" y="136.817" width="4" height="4" fill="#516CFD"/>
<rect x="250.18" y="166.669" width="4" height="4" fill="#516CFD"/>
<rect x="250.18" y="196.52" width="4" height="4" fill="#516CFD"/>
<rect x="220.332" y="151.745" width="4" height="4" fill="#516CFD"/>
<rect x="220.332" y="181.597" width="4" height="4" fill="#516CFD"/>
<rect x="220.326" y="62.1934" width="4" height="4" fill="#516CFD"/>
<rect x="220.326" y="92.045" width="4" height="4" fill="#516CFD"/>
<rect x="220.326" y="121.896" width="4" height="4" fill="#516CFD"/>
<rect x="250.172" y="77.1172" width="4" height="4" fill="#516CFD"/>
<rect x="250.172" y="106.969" width="4" height="4" fill="#516CFD"/>
<rect x="250.172" y="17.4152" width="4" height="4" fill="#516CFD"/>
<rect x="250.172" y="47.2668" width="4" height="4" fill="#516CFD"/>
<path d="M110.944 62C107.514 62 104.734 64.7782 104.734 68.2054C104.734 101.849 104.734 116.912 104.734 138.385C104.734 141.812 107.514 144.59 110.944 144.59L141.378 144.59C164.199 144.59 182.699 126.102 182.699 103.295C182.699 80.4884 164.199 62 141.378 62L110.944 62Z" stroke="#516CFD" stroke-width="4" stroke-linejoin="round"/>
<path d="M104.897 78.4185C104.908 78.3972 104.918 78.3869 104.922 78.3824C104.927 78.3777 104.931 78.3744 104.936 78.3715C104.947 78.365 104.969 78.3569 105 78.3569C105.031 78.3569 105.053 78.365 105.064 78.3715C105.069 78.3744 105.073 78.3777 105.078 78.3824C105.082 78.3869 105.092 78.3972 105.103 78.4185C110.895 89.2015 120.122 97.7409 131.321 102.681L131.702 102.849C131.758 102.874 131.771 102.895 131.777 102.904C131.788 102.922 131.8 102.955 131.8 103C131.8 103.045 131.788 103.078 131.777 103.096L131.777 103.096C131.771 103.105 131.758 103.126 131.702 103.151L131.321 103.319C120.122 108.259 110.895 116.798 105.103 127.582C105.092 127.603 105.082 127.613 105.078 127.618C105.073 127.622 105.069 127.626 105.064 127.629C105.053 127.635 105.031 127.643 105 127.643C104.969 127.643 104.947 127.635 104.936 127.629C104.931 127.626 104.927 127.622 104.922 127.618C104.918 127.613 104.908 127.603 104.897 127.582C99.1055 116.798 89.8778 108.259 78.6789 103.319L78.2982 103.151L77.5375 104.876L78.2982 103.151C78.2421 103.126 78.2286 103.105 78.2231 103.096L78.2231 103.096C78.2123 103.078 78.1997 103.045 78.1997 103C78.1997 102.955 78.2123 102.922 78.2231 102.904L78.2231 102.904C78.2286 102.895 78.2421 102.874 78.2982 102.849L77.491 101.019L78.2982 102.849L78.6789 102.681C89.8778 97.7409 99.1055 89.2015 104.897 78.4185Z" fill="#2A2A2A" stroke="#516CFD" stroke-width="4"/>
</g>
<defs>
<clipPath id="clip0_297_8282">
<rect width="269.333" height="216.424" fill="white"/>
</clipPath>
</defs>
</svg>
