<svg width="20" height="21" viewBox="0 0 20 21" fill="none" xmlns="http://www.w3.org/2000/svg">
<circle cx="10" cy="10.2721" r="10" fill="white"/>
<path d="M7.95402 15.2721H7.86928C7.70379 15.2611 7.54284 15.2172 7.39528 15.1431C7.24773 15.0691 7.11691 14.9663 7.01132 14.8412L4.02832 11.3102C3.82229 11.0662 3.7248 10.7522 3.75557 10.4373C3.78633 10.1223 3.94295 9.83229 4.19249 9.63085C4.3161 9.53091 4.45888 9.4557 4.61221 9.40967C4.76554 9.36363 4.92653 9.34768 5.0862 9.36258C5.24588 9.37748 5.40133 9.423 5.54299 9.49655C5.68465 9.57011 5.81035 9.67021 5.91239 9.7912L8.0745 12.352L14.2034 6.83669C14.4415 6.62276 14.7568 6.50994 15.0799 6.52312C15.403 6.53629 15.7082 6.67435 15.9272 6.90691C16.0358 7.02221 16.1197 7.15731 16.1748 7.30446C16.23 7.4516 16.2556 7.60789 16.249 7.76446C16.2423 7.92103 16.2039 8.07487 16.1364 8.21702C16.069 8.35917 15.9737 8.48682 15.8557 8.59289L8.77623 14.9553C8.55208 15.1578 8.25921 15.2708 7.95402 15.2721Z" fill="#E34D2B"/>
</svg>
