<svg width="270" height="217" viewBox="0 0 270 217" fill="none" xmlns="http://www.w3.org/2000/svg">
<g clip-path="url(#clip0_297_8442)">
<rect x="45.0463" y="32.3428" width="4" height="4" fill="#28FFB2" fill-opacity="0.5"/>
<rect x="45.0463" y="62.1943" width="4" height="4" fill="#28FFB2" fill-opacity="0.5"/>
<rect x="45.0462" y="92.0457" width="4" height="4" fill="#28FFB2" fill-opacity="0.5"/>
<rect x="15.1908" y="47.2667" width="4" height="4" fill="#28FFB2" fill-opacity="0.5"/>
<rect x="15.1908" y="77.1182" width="4" height="4" fill="#28FFB2" fill-opacity="0.5"/>
<rect x="74.894" y="47.2667" width="4" height="4" fill="#28FFB2" fill-opacity="0.5"/>
<rect x="15.1927" y="14.9217" width="4" height="4" fill="#28FFB2" fill-opacity="0.5"/>
<rect x="45.0499" y="-0.00177002" width="4" height="4" fill="#28FFB2" fill-opacity="0.5"/>
<rect x="15.1909" y="106.969" width="4" height="4" fill="#28FFB2" fill-opacity="0.5"/>
<rect x="15.1909" y="136.82" width="4" height="4" fill="#28FFB2" fill-opacity="0.5"/>
<rect x="15.1927" y="166.669" width="4" height="4" fill="#28FFB2" fill-opacity="0.5"/>
<rect x="15.1927" y="196.521" width="4" height="4" fill="#28FFB2" fill-opacity="0.5"/>
<rect x="45.0499" y="181.597" width="4" height="4" fill="#28FFB2" fill-opacity="0.5"/>
<rect x="45.0499" y="211.448" width="4" height="4" fill="#28FFB2" fill-opacity="0.5"/>
<rect x="74.8939" y="166.67" width="4" height="4" fill="#28FFB2" fill-opacity="0.5"/>
<rect x="45.0482" y="121.895" width="4" height="4" fill="#28FFB2" fill-opacity="0.5"/>
<rect x="45.0481" y="151.746" width="4" height="4" fill="#28FFB2" fill-opacity="0.5"/>
<rect x="104.745" y="181.599" width="4" height="4" fill="#28FFB2" fill-opacity="0.5"/>
<rect x="104.745" y="211.45" width="4" height="4" fill="#28FFB2" fill-opacity="0.5"/>
<rect x="74.89" y="196.522" width="4" height="4" fill="#28FFB2" fill-opacity="0.5"/>
<rect x="134.593" y="196.522" width="4" height="4" fill="#28FFB2" fill-opacity="0.5"/>
<rect x="104.745" width="4" height="4" fill="#28FFB2" fill-opacity="0.5"/>
<rect x="104.745" y="29.8516" width="4" height="4" fill="#28FFB2" fill-opacity="0.5"/>
<rect x="74.89" y="14.9236" width="4" height="4" fill="#28FFB2" fill-opacity="0.5"/>
<rect x="134.593" y="14.9236" width="4" height="4" fill="#28FFB2" fill-opacity="0.5"/>
<rect x="194.302" y="17.4131" width="4" height="4" fill="#28FFB2" fill-opacity="0.5"/>
<rect x="194.302" y="47.2645" width="4" height="4" fill="#28FFB2" fill-opacity="0.5"/>
<rect x="164.455" y="2.48944" width="4" height="4" fill="#28FFB2" fill-opacity="0.5"/>
<rect x="164.455" y="32.341" width="4" height="4" fill="#28FFB2" fill-opacity="0.5"/>
<rect x="224.158" y="2.48944" width="4" height="4" fill="#28FFB2" fill-opacity="0.5"/>
<rect x="224.158" y="32.341" width="4" height="4" fill="#28FFB2" fill-opacity="0.5"/>
<rect x="164.451" y="181.6" width="4" height="4" fill="#28FFB2" fill-opacity="0.5"/>
<rect x="194.296" y="166.672" width="4" height="4" fill="#28FFB2" fill-opacity="0.5"/>
<rect x="194.302" y="196.521" width="4" height="4" fill="#28FFB2" fill-opacity="0.5"/>
<rect x="164.455" y="211.448" width="4" height="4" fill="#28FFB2" fill-opacity="0.5"/>
<rect x="224.158" y="211.448" width="4" height="4" fill="#28FFB2" fill-opacity="0.5"/>
<rect x="251.513" y="136.817" width="4" height="4" fill="#28FFB2" fill-opacity="0.5"/>
<rect x="251.513" y="166.669" width="4" height="4" fill="#28FFB2" fill-opacity="0.5"/>
<rect x="251.513" y="196.52" width="4" height="4" fill="#28FFB2" fill-opacity="0.5"/>
<rect x="221.665" y="151.745" width="4" height="4" fill="#28FFB2" fill-opacity="0.5"/>
<rect x="221.665" y="181.597" width="4" height="4" fill="#28FFB2" fill-opacity="0.5"/>
<rect x="221.66" y="62.1934" width="4" height="4" fill="#28FFB2" fill-opacity="0.5"/>
<rect x="221.66" y="92.045" width="4" height="4" fill="#28FFB2" fill-opacity="0.5"/>
<rect x="221.66" y="121.896" width="4" height="4" fill="#28FFB2" fill-opacity="0.5"/>
<rect x="251.505" y="77.1172" width="4" height="4" fill="#28FFB2" fill-opacity="0.5"/>
<rect x="251.505" y="106.969" width="4" height="4" fill="#28FFB2" fill-opacity="0.5"/>
<rect x="251.505" y="17.4152" width="4" height="4" fill="#28FFB2" fill-opacity="0.5"/>
<rect x="251.505" y="47.2668" width="4" height="4" fill="#28FFB2" fill-opacity="0.5"/>
<path d="M143.906 79.5928L164.288 99.975" stroke="#3AD89F" stroke-width="4" stroke-linecap="round"/>
<path d="M106.052 117.443L126.434 137.826" stroke="#3AD89F" stroke-width="4" stroke-linecap="round"/>
<path d="M126.434 79.5928L106.052 99.975" stroke="#3AD89F" stroke-width="4" stroke-linecap="round"/>
<path d="M164.288 117.443L143.906 137.826" stroke="#3AD89F" stroke-width="4" stroke-linecap="round"/>
<path d="M135.166 82.5059C141.598 82.5059 146.813 77.2913 146.813 70.8589C146.813 64.4264 141.598 59.2119 135.166 59.2119C128.733 59.2119 123.519 64.4264 123.519 70.8589C123.519 77.2913 128.733 82.5059 135.166 82.5059Z" stroke="#3AD89F" stroke-width="4"/>
<path d="M135.166 158.212C141.598 158.212 146.813 152.997 146.813 146.565C146.813 140.132 141.598 134.918 135.166 134.918C128.733 134.918 123.519 140.132 123.519 146.565C123.519 152.997 128.733 158.212 135.166 158.212Z" stroke="#3AD89F" stroke-width="4"/>
<path d="M97.3143 120.356C103.747 120.356 108.961 115.141 108.961 108.709C108.961 102.276 103.747 97.0617 97.3143 97.0617C90.8819 97.0617 85.6674 102.276 85.6674 108.709C85.6674 115.141 90.8819 120.356 97.3143 120.356Z" stroke="#3AD89F" stroke-width="4"/>
<path d="M173.023 120.356C179.456 120.356 184.67 115.141 184.67 108.709C184.67 102.276 179.456 97.0617 173.023 97.0617C166.591 97.0617 161.376 102.276 161.376 108.709C161.376 115.141 166.591 120.356 173.023 120.356Z" stroke="#3AD89F" stroke-width="4"/>
</g>
<defs>
<clipPath id="clip0_297_8442">
<rect width="269.333" height="216.424" fill="white" transform="translate(0.333374)"/>
</clipPath>
</defs>
</svg>
