<svg width="130" height="24" viewBox="0 0 130 24" fill="none" xmlns="http://www.w3.org/2000/svg">
<path fill-rule="evenodd" clip-rule="evenodd" d="M10.0066 0.517334H16.3896C22.7132 0.517334 27.8579 5.66703 27.8579 11.9994C27.8579 18.3318 22.7132 23.4826 16.3896 23.4826H10.0066C7.76947 23.4826 5.94854 21.6595 5.94854 19.4197V17.374C4.57685 15.471 2.76618 13.8979 0.640805 12.7757L0.388816 12.6433C0.149369 12.5166 0 12.2688 0 11.9994C0 11.73 0.149369 11.4834 0.388816 11.3556L0.640805 11.2231C2.76618 10.1021 4.57685 8.52899 5.94854 6.62482V4.58024C5.94854 2.33931 7.76947 0.517334 10.0066 0.517334ZM10.0066 20.172H16.3896C20.89 20.172 24.5513 16.5053 24.5513 11.9994C24.5513 7.49357 20.89 3.82794 16.3896 3.82794H10.0066C9.59269 3.82794 9.25519 4.1647 9.25519 4.58024V6.6214C10.6257 8.52671 12.4364 10.101 14.5641 11.2231L14.8149 11.3556C15.0555 11.4834 15.2049 11.7289 15.2049 11.9994C15.2049 12.27 15.0555 12.5166 14.8149 12.6433L14.5641 12.7757C12.4364 13.899 10.6257 15.4733 9.25519 17.3774V19.4197C9.25519 19.8341 9.59269 20.172 10.0066 20.172ZM80.9269 21.1305V2.72472H84.6445V12.6634H86.2269L89.1909 8.1765H92.9586L88.9899 14.2796L93.3605 21.1305H89.5928L86.1767 15.8958H84.6445V21.1305H80.9269ZM38.1023 21.1305V3.27955H45.9643C47.2202 3.27955 48.2668 3.49666 49.1041 3.93087C49.9414 4.349 50.6029 4.96011 51.0885 5.76421C51.5908 6.55223 51.9425 7.49302 52.1434 8.58659C52.3444 9.68016 52.4449 10.8863 52.4449 12.205C52.4449 14.2153 52.202 15.8798 51.7164 17.1985C51.2476 18.5172 50.5359 19.5062 49.5814 20.1656C48.6269 20.8089 47.4212 21.1305 45.9643 21.1305H38.1023ZM41.8198 17.9222H45.5875C46.3578 17.9222 46.9691 17.7131 47.4212 17.295C47.8733 16.8607 48.1999 16.2175 48.4008 15.3651C48.6185 14.5128 48.7273 13.4594 48.7273 12.205C48.7273 11.0471 48.6604 10.0983 48.5264 9.35852C48.3924 8.60267 48.1915 8.01568 47.9236 7.59755C47.6724 7.17942 47.3458 6.88995 46.9439 6.72913C46.5588 6.56831 46.1067 6.4879 45.5875 6.4879H41.8198V17.9222ZM60.4305 21.2511C58.9402 21.2511 57.7513 21.0662 56.8637 20.6963C55.9762 20.3103 55.3315 19.6349 54.9296 18.67C54.5445 17.705 54.3519 16.3702 54.3519 14.6656C54.3519 12.9126 54.5361 11.5537 54.9045 10.5888C55.2729 9.62388 55.8925 8.94843 56.7633 8.56247C57.634 8.1765 58.8146 7.98352 60.305 7.98352C61.6446 7.98352 62.7163 8.11217 63.5201 8.36948C64.3239 8.6268 64.9016 9.07709 65.2533 9.72037C65.6217 10.3636 65.8059 11.2723 65.8059 12.4463C65.8059 13.3147 65.6217 14.0062 65.2533 14.5208C64.9016 15.0194 64.3992 15.3812 63.7462 15.6064C63.0931 15.8154 62.3228 15.92 61.4353 15.92H58.0443C58.0778 16.5793 58.1783 17.11 58.3457 17.5121C58.5299 17.898 58.8565 18.1795 59.3253 18.3564C59.811 18.5172 60.5059 18.5976 61.4102 18.5976H65.3537V20.6963C64.7007 20.8249 63.9806 20.9536 63.1936 21.0823C62.4233 21.1948 61.5023 21.2511 60.4305 21.2511ZM57.9941 13.7971H61.0585C61.5609 13.7971 61.9293 13.7006 62.1637 13.5077C62.3981 13.3147 62.5154 12.9689 62.5154 12.4704C62.5154 12.004 62.44 11.6341 62.2893 11.3607C62.1386 11.0712 61.9042 10.8702 61.586 10.7577C61.2678 10.629 60.8408 10.5647 60.305 10.5647C59.7356 10.5647 59.2835 10.6612 58.9486 10.8541C58.6136 11.031 58.3708 11.3527 58.2201 11.8191C58.0694 12.2854 57.9941 12.9448 57.9941 13.7971ZM71.7868 21.227C72.2724 21.2592 72.7245 21.2752 73.1432 21.2752C74.3154 21.2752 75.3034 21.1707 76.1072 20.9616C76.9277 20.7365 77.5473 20.3747 77.9659 19.8761C78.4013 19.3615 78.619 18.67 78.619 17.8015V16.6436C78.619 15.5822 78.3008 14.754 77.6645 14.159C77.0449 13.5479 76.0485 13.2423 74.6754 13.2423H72.5152C72.1468 13.2423 71.837 13.2182 71.5858 13.1699C71.3514 13.1056 71.1756 13.0091 71.0584 12.8805C70.9411 12.7357 70.8825 12.5186 70.8825 12.2291V11.8432C70.8825 11.4251 71.0081 11.1436 71.2593 10.9989C71.5105 10.8381 71.8789 10.7577 72.3645 10.7577H78.0162V8.65896C77.6812 8.54638 77.2291 8.44989 76.6598 8.36948C76.1072 8.27299 75.5127 8.20062 74.8764 8.15238C74.2568 8.08805 73.6707 8.05589 73.1181 8.05589C71.7449 8.05589 70.6648 8.20062 69.8778 8.4901C69.0908 8.77957 68.5298 9.20574 68.1949 9.76861C67.86 10.3315 67.6925 11.023 67.6925 11.8432V12.591C67.6925 13.4594 67.8683 14.1509 68.22 14.6656C68.5884 15.1802 69.0824 15.5501 69.702 15.7752C70.3216 16.0004 71.0165 16.1129 71.7868 16.1129H73.8967C74.4828 16.1129 74.8847 16.2014 75.1024 16.3783C75.3201 16.5552 75.429 16.8045 75.429 17.1261V17.5362C75.429 17.8257 75.3703 18.0508 75.2531 18.2116C75.1527 18.3564 74.9852 18.4609 74.7508 18.5252C74.5331 18.5735 74.2484 18.5976 73.8967 18.5976H67.9186V20.6963C68.2032 20.7928 68.5549 20.8812 68.9735 20.9616C69.3922 21.026 69.8443 21.0823 70.3299 21.1305C70.8156 21.1787 71.3012 21.2109 71.7868 21.227ZM94.8353 8.1765V21.1305H98.5528V13.0735C98.8542 12.7518 99.164 12.4945 99.4822 12.3015C99.8171 12.0925 100.177 11.9397 100.562 11.8432C100.964 11.7306 101.408 11.6743 101.894 11.6743C102.145 11.6743 102.404 11.6904 102.672 11.7226C102.957 11.7386 103.225 11.7628 103.476 11.7949V8.12825C103.309 8.08001 103.124 8.04784 102.923 8.03176C102.739 8.01568 102.555 8.00764 102.371 8.00764C101.533 8.00764 100.805 8.21671 100.185 8.63484C99.5826 9.05297 99.0384 9.55955 98.5528 10.1546L97.6988 8.1765H94.8353ZM111.133 21.2511C109.643 21.2511 108.454 21.0662 107.567 20.6963C106.679 20.3103 106.034 19.6349 105.632 18.67C105.247 17.705 105.055 16.3702 105.055 14.6656C105.055 12.9126 105.239 11.5537 105.607 10.5888C105.976 9.62388 106.595 8.94843 107.466 8.56247C108.337 8.1765 109.517 7.98352 111.008 7.98352C112.347 7.98352 113.419 8.11217 114.223 8.36948C115.027 8.6268 115.604 9.07709 115.956 9.72037C116.324 10.3636 116.509 11.2723 116.509 12.4463C116.509 13.3147 116.324 14.0062 115.956 14.5208C115.604 15.0194 115.102 15.3812 114.449 15.6064C113.796 15.8154 113.026 15.92 112.138 15.92H108.747C108.781 16.5793 108.881 17.11 109.049 17.5121C109.233 17.898 109.559 18.1795 110.028 18.3564C110.514 18.5172 111.209 18.5976 112.113 18.5976H116.057V20.6963C115.403 20.8249 114.683 20.9536 113.896 21.0823C113.126 21.1948 112.205 21.2511 111.133 21.2511ZM108.697 13.7971H111.761C112.264 13.7971 112.632 13.7006 112.867 13.5077C113.101 13.3147 113.218 12.9689 113.218 12.4704C113.218 12.004 113.143 11.6341 112.992 11.3607C112.841 11.0712 112.607 10.8702 112.289 10.7577C111.971 10.629 111.544 10.5647 111.008 10.5647C110.438 10.5647 109.986 10.6612 109.651 10.8541C109.316 11.031 109.074 11.3527 108.923 11.8191C108.772 12.2854 108.697 12.9448 108.697 13.7971ZM121.058 20.6963C121.945 21.0662 123.134 21.2511 124.625 21.2511C125.696 21.2511 126.617 21.1948 127.388 21.0823C128.175 20.9536 128.895 20.8249 129.548 20.6963V18.5976H125.604C124.7 18.5976 124.005 18.5172 123.519 18.3564C123.051 18.1795 122.724 17.898 122.54 17.5121C122.372 17.11 122.272 16.5793 122.238 15.92H125.629C126.517 15.92 127.287 15.8154 127.94 15.6064C128.593 15.3812 129.096 15.0194 129.447 14.5208C129.816 14.0062 130 13.3147 130 12.4463C130 11.2723 129.816 10.3636 129.447 9.72037C129.096 9.07709 128.518 8.6268 127.714 8.36948C126.91 8.11217 125.839 7.98352 124.499 7.98352C123.009 7.98352 121.828 8.1765 120.957 8.56247C120.087 8.94843 119.467 9.62388 119.099 10.5888C118.73 11.5537 118.546 12.9126 118.546 14.6656C118.546 16.3702 118.739 17.705 119.124 18.67C119.526 19.6349 120.17 20.3103 121.058 20.6963ZM125.253 13.7971H122.188C122.188 12.9448 122.264 12.2854 122.414 11.8191C122.565 11.3527 122.808 11.031 123.143 10.8541C123.478 10.6612 123.93 10.5647 124.499 10.5647C125.035 10.5647 125.462 10.629 125.78 10.7577C126.098 10.8702 126.333 11.0712 126.483 11.3607C126.634 11.6341 126.709 12.004 126.709 12.4704C126.709 12.9689 126.592 13.3147 126.358 13.5077C126.123 13.7006 125.755 13.7971 125.253 13.7971Z" fill="white"/>
</svg>
